<?xml version="1.0" encoding="UTF-8"?>
<svg id="Layer_1" xmlns="http://www.w3.org/2000/svg" version="1.1" viewBox="0 0 309 314">
  <path d="M44.35,280.85l80.39-80.53c11.17,5.25,24.43.71,29.92-10.53,3.51-7.18,2.84-15.84-1.71-22.41-7.19-10.38-21.11-12.7-31.16-5.84-9.05,6.19-12.37,18.05-7.61,28.25l-80.45,80.2c-2.33,2.32-6.16-.21-4.94-3.26l53.51-134.14c1.05-2.06,2.07-3.23,3.99-4.38l63.63-31.8c4.72-2.36,10.41-1.43,14.14,2.3l51.74,51.74c3.73,3.73,4.65,9.42,2.3,14.14l-31.79,63.62c-1.18,1.94-2.31,2.96-4.41,4.01l-134.28,53.58c-3.05,1.22-5.58-2.62-3.26-4.95Z"/>
  <path d="M243.31,145.48c-3.27,3.27-7.89,3.37-11.08.18l-63.39-63.39c-3.17-3.17-3.04-7.83.06-10.93l33.45-33.44c3.1-3.1,7.75-3.23,10.92-.05l63.39,63.39c3.18,3.18,3.05,7.82-.05,10.93l-33.3,33.32Z"/>
  <path d="M132.99,172.75c4.34-.88,7.98,2.06,8.76,5.75.88,4.14-1.84,8.02-5.68,8.85-4.06.88-7.85-1.6-8.84-5.37-1.06-4.02,1.28-8.33,5.77-9.23Z"/>
</svg>
