<?xml version="1.0" encoding="UTF-8"?>
<svg id="Layer_1" xmlns="http://www.w3.org/2000/svg" version="1.1" viewBox="0 0 309 314">
  <!-- Generator: Adobe Illustrator 30.2.1, SVG Export Plug-In . SVG Version: 2.1.1 Build 1)  -->
  <defs>
    <style>
      .st0 {
        stroke: #fff;
        stroke-linecap: round;
        stroke-linejoin: round;
        stroke-width: 8px;
      }

      .st0, .st1 {
        fill: #4e4e4e;
      }

      .st2 {
        fill: #fff;
      }
    </style>
  </defs>
  <g>
    <path class="st1" d="M93.94,233.72c-1.73,0-3.28-1.06-3.95-2.68-.65-1.56-.35-3.26.78-4.51.05-.05.09-.12.15-.16l47.43-47.5c.49-.49,1.13-.74,1.78-.74.36,0,.73.08,1.07.24,1.47.69,3.03,1.05,4.64,1.05,4.14,0,7.85-2.33,9.68-6.08,1.67-3.43,1.37-7.52-.81-10.68-2.02-2.92-5.33-4.66-8.86-4.66-2.16,0-4.24.64-6.03,1.87-4.37,2.99-5.89,8.66-3.63,13.52.45.96.25,2.1-.5,2.85l-47.46,47.31c-.82.82-1.9,1.27-3.02,1.27-1.44,0-2.79-.72-3.61-1.92-.8-1.19-.95-2.64-.41-3.99l31.56-79.13c.03-.07.06-.15.09-.21.85-1.66,1.81-2.71,3.3-3.6.05-.03.12-.06.17-.09l37.54-18.76c1.34-.67,2.85-1.03,4.36-1.03,2.61,0,5.05,1.02,6.9,2.85l30.52,30.52c2.97,2.97,3.7,7.49,1.83,11.25l-18.76,37.54c-.03.06-.06.12-.1.19-.94,1.54-1.96,2.48-3.63,3.31-.06.03-.12.06-.19.08l-79.21,31.61c-.52.21-1.07.32-1.63.32v-.02h0Z"/>
    <path class="st2" d="M158.2,118.58c1.87,0,3.73.73,5.12,2.12l30.52,30.52c2.2,2.2,2.75,5.56,1.36,8.34l-18.76,37.53c-.69,1.14-1.37,1.74-2.61,2.37l-79.21,31.61c-.24.09-.46.14-.69.14-1.45,0-2.42-1.87-1.23-3.06h0l47.43-47.5c1.84.87,3.8,1.28,5.71,1.28,4.91,0,9.61-2.72,11.94-7.49,2.07-4.24,1.67-9.34-1.01-13.22-2.62-3.78-6.75-5.75-10.93-5.75-2.58,0-5.19.76-7.45,2.3-5.34,3.65-7.3,10.65-4.49,16.67l-47.46,47.31c-.37.37-.81.53-1.24.53-1.14,0-2.19-1.15-1.67-2.45l31.56-79.13c.62-1.22,1.23-1.91,2.35-2.58l37.54-18.76c1.03-.51,2.13-.76,3.23-.76M158.2,113.53c-1.89,0-3.79.45-5.49,1.3l-37.54,18.76c-.12.05-.22.12-.33.19-1.91,1.15-3.19,2.53-4.26,4.62-.07.14-.13.28-.19.42l-31.56,79.13c-.85,2.11-.59,4.47.66,6.33,1.29,1.9,3.41,3.03,5.69,3.03.84,0,1.67-.15,2.44-.46-.66,1.62-.67,3.47.02,5.15,1.07,2.57,3.54,4.24,6.29,4.24.88,0,1.74-.17,2.57-.5l79.21-31.61c.13-.05.26-.11.39-.17,2.08-1.04,3.47-2.31,4.65-4.26.08-.12.14-.24.2-.36l18.76-37.53c2.36-4.74,1.44-10.43-2.3-14.17l-30.52-30.52c-2.32-2.32-5.4-3.6-8.69-3.6h0ZM138.75,175.78c.32-1.13.23-2.37-.29-3.49-1.74-3.72-.57-8.09,2.77-10.37,1.37-.93,2.96-1.43,4.61-1.43,2.73,0,5.2,1.3,6.78,3.57,1.64,2.37,1.88,5.56.62,8.13-1.4,2.88-4.24,4.67-7.41,4.67-1.23,0-2.43-.27-3.56-.8-.69-.32-1.42-.48-2.14-.48-.46,0-.93.06-1.37.19h0Z"/>
  </g>
  <path class="st0" d="M211.04,150.33c-2.06,2.06-4.98,2.12-6.99.12l-39.97-39.97c-2-2-1.91-4.94.04-6.89l21.09-21.09c1.95-1.95,4.88-2.04,6.89-.03l39.97,39.97c2.01,2.01,1.92,4.93-.03,6.89l-21,21.01h0Z"/>
</svg>