<?xml version="1.0" encoding="UTF-8"?>
<svg id="Layer_1" xmlns="http://www.w3.org/2000/svg" version="1.1" viewBox="0 0 309 314">
  <!-- Generator: Adobe Illustrator 30.2.1, SVG Export Plug-In . SVG Version: 2.1.1 Build 1)  -->
  <path d="M221.38,134.7c24.94-.05,44.74-20.38,44.62-44.84-.12-24.55-20.27-44.51-44.85-44.35-24.24.15-44.29,19.88-44.34,44.63l-.05,22.26h-44.51s-.1-23.3-.1-23.3c-.1-24.73-21.06-43.99-45.31-43.58-24.13.4-43.72,20.17-43.84,44.34-.13,24.02,19.05,44.72,43.59,44.82l23.3.09v44.52s-21.22.02-21.22.02c-24.93.02-45.23,19.33-45.67,43.83-.45,24.52,19.24,44.95,43.81,45.38,24.23.43,45.24-18.83,45.34-43.59l.1-23.29h44.51s.03,21.74.03,21.74c.04,25.13,20.17,45.26,44.85,45.15,24.54-.11,44.5-20.29,44.35-44.86-.16-24.44-20.13-44.32-45.32-44.35l-21.57-.02v-44.52s22.27-.05,22.27-.05ZM221.18,67.82c12.28-.13,22.38,9.79,22.5,22.05.11,12.24-9.69,22.52-22.26,22.52h-22.26s-.04-22.3-.04-22.3c-.02-12.41,10.03-22.14,22.07-22.27ZM87.83,246.18c-12.28.13-22.39-9.8-22.5-22.05-.12-12.24,9.7-22.51,22.27-22.52h22.26s.04,22.29.04,22.29c.02,12.41-10.03,22.15-22.06,22.27ZM87.6,112.39c-12.41.02-22.15-10.03-22.28-22.06-.13-12.29,9.8-22.38,22.05-22.5,12.24-.12,22.51,9.69,22.52,22.27v22.26s-22.29.04-22.29.04ZM132.22,179.3v-44.58s44.58,0,44.58,0l.03,44.56-44.6.02ZM199.15,201.64l22.06-.04c12.84-.02,22.58,10.32,22.47,22.53-.11,12.27-10.26,22.19-22.5,22.04-12.28-.14-22.12-10.17-22.09-22.77l.06-21.76Z"/>
</svg>