<?xml version="1.0" encoding="UTF-8"?>
<svg id="Layer_1" xmlns="http://www.w3.org/2000/svg" version="1.1" viewBox="0 0 309 314">
  <!-- Generator: Adobe Illustrator 30.2.1, SVG Export Plug-In . SVG Version: 2.1.1 Build 1)  -->
  <path d="M171.47,157l70.01-70.01c4.69-4.69,4.69-12.28,0-16.97-4.69-4.69-12.29-4.69-16.97,0l-70.01,70.01-70.01-70.01c-4.69-4.69-12.28-4.69-16.97,0-4.69,4.69-4.69,12.28,0,16.97l70.01,70.01-70.01,70.01c-4.69,4.69-4.69,12.28,0,16.97,2.34,2.34,5.41,3.51,8.49,3.51s6.14-1.17,8.49-3.51l70.01-70.01,70.01,70.01c2.34,2.34,5.41,3.51,8.49,3.51s6.14-1.17,8.49-3.51c4.69-4.69,4.69-12.28,0-16.97l-70.01-70.01Z"/>
</svg>