<?xml version="1.0" encoding="UTF-8"?>
<svg id="Layer_1" xmlns="http://www.w3.org/2000/svg" version="1.1" viewBox="0 0 309 314">
  <!-- Generator: Adobe Illustrator 30.2.1, SVG Export Plug-In . SVG Version: 2.1.1 Build 1)  -->
  <defs>
    <style>
      .st0 {
        fill: #4e4e4e;
        stroke-linejoin: round;
        stroke-width: 8px;
      }

      .st0, .st1 {
        stroke: #fff;
        stroke-linecap: round;
      }

      .st2 {
        fill: #fff;
      }

      .st1 {
        fill: none;
        stroke-miterlimit: 10;
        stroke-width: 10px;
      }
    </style>
  </defs>
  <line class="st1" x1="21" y1="157" x2="288" y2="157"/>
  <rect class="st0" x="45" y="75.75" width="218" height="163.5"/>
  <path class="st2" d="M192.03,124.71c1.29-5.36,3.64-9.27,14.08-9.66.65,0,2.23-.12,2.23-2.62,0-.12,0-1.43-1.7-1.43-4.32,0-8.88.39-13.32.39s-9.25-.39-13.57-.39c-.78,0-2.35,0-2.35,2.62,0,1.43,1.31,1.43,2.35,1.43,7.44.12,8.88,2.87,8.88,5.75,0,.39-.26,2.33-.39,2.72l-11.74,46.59c-4.44,17.49-19.44,28.85-32.49,28.85-8.88,0-15.92-5.75-15.92-16.96,0-.26,0-4.44,1.43-10.19l12.64-50.77c1.19-4.69,1.45-6,10.96-6,3.4,0,4.44,0,4.44-2.62,0-1.43-1.43-1.43-1.82-1.43-3.66,0-13.06.39-16.72.39s-13.03-.39-16.82-.39c-1.04,0-2.48,0-2.48,2.62,0,1.43,1.17,1.43,3.64,1.43.26,0,2.74,0,4.95.26,2.35.25,3.54.39,3.54,2.09,0,.78-1.43,6.26-2.23,9.27l-2.87,11.48c-1.17,5.07-7.44,29.75-7.96,32.22-.92,3.66-.92,5.61-.92,7.57,0,15.92,11.89,25.04,25.57,25.04,16.45,0,32.64-14.73,36.93-31.96l11.63-46.32"/>
</svg>