<?xml version="1.0" encoding="UTF-8"?>
<svg id="Layer_1" xmlns="http://www.w3.org/2000/svg" version="1.1" viewBox="0 0 309 314">
  <!-- Generator: Adobe Illustrator 30.2.1, SVG Export Plug-In . SVG Version: 2.1.1 Build 1)  -->
  <defs>
    <style>
      .st0 {
        fill: #fff;
      }
    </style>
  </defs>
  <path class="st0" d="M114.89,145.47l-26.55,17.91c-4.54,3.06-9.79,1.03-12.55-3.25l-17.32-26.78c-2.11-3.27-.48-7.68,1.55-9.48,3.04-2.7,8.53-3.31,10.96.09l7.43,10.4c10.84-41.19,48.59-68.36,89.97-66.01,41.06,2.33,75.51,33.26,82.03,74.74,6.46,41.06-15.53,80.22-52.82,95.85-38.05,15.95-82.3,3.4-106.16-30.92-2.91-4.19-1.49-9.12,2.01-11.44,3.74-2.48,8.5-1.5,11.49,2.66,19.99,27.82,55.93,38.24,87.68,24.16,29.96-13.29,48.11-45.89,41.18-80.29-6.28-31.13-33.56-55.89-67.46-57.32-32.01-1.35-63.15,19.43-72.06,52.34,6.1-.31,8.16-4.72,12.36-6.36,4.14-1.62,8.47-.7,10.53,2.94,1.62,2.86,1.77,8.02-2.28,10.76Z"/>
  <path class="st0" d="M171.77,153.61c4.68,9.8,27.49,21.5,22.15,31.64-1.74,3.31-8.2,6.36-11.65,2.65-8.39-9.05-20.34-17.61-26.63-28.18-3.15-14.11.01-29.38-1.08-43.56-.4-5.16,4.67-7.97,8.24-7.9,14.93.29,4.17,33.13,8.97,45.35Z"/>
</svg>