<?xml version="1.0" encoding="UTF-8"?>
<svg id="Layer_1" xmlns="http://www.w3.org/2000/svg" version="1.1" viewBox="0 0 309 314">
  <!-- Generator: Adobe Illustrator 30.2.1, SVG Export Plug-In . SVG Version: 2.1.1 Build 1)  -->
  <defs>
    <style>
      .st0 {
        fill: #fff;
      }
    </style>
  </defs>
  <path class="st0" d="M106.94,143.15l-31.88,21.5c-5.45,3.67-11.76,1.23-15.07-3.9l-20.8-32.15c-2.54-3.92-.58-9.22,1.86-11.38,3.65-3.24,10.24-3.98,13.16.11l8.92,12.49c13.02-49.45,58.34-82.08,108.03-79.26,49.3,2.8,90.67,39.94,98.49,89.74,7.76,49.3-18.65,96.33-63.43,115.09-45.68,19.15-98.82,4.08-127.47-37.13-3.49-5.03-1.79-10.95,2.41-13.74,4.49-2.98,10.2-1.8,13.8,3.19,24,33.4,67.16,45.92,105.28,29.01,35.98-15.96,57.77-55.1,49.44-96.41-7.54-37.38-40.3-67.11-81-68.82-38.43-1.62-75.82,23.33-86.53,62.85,7.32-.37,9.8-5.67,14.84-7.64,4.98-1.94,10.17-.84,12.64,3.53,1.94,3.44,2.12,9.63-2.73,12.92h.03Z"/>
  <path class="st0" d="M175.24,152.93c5.62,11.77,33.01,25.82,26.59,37.99-2.09,3.98-9.84,7.64-13.99,3.18-10.08-10.87-24.43-21.14-31.97-33.84-3.78-16.94,0-35.28-1.3-52.31-.48-6.2,5.6-9.57,9.9-9.48,17.93.35,5.01,39.78,10.77,54.46h0Z"/>
</svg>