<?xml version="1.0" encoding="UTF-8"?>
<svg id="Layer_1" xmlns="http://www.w3.org/2000/svg" version="1.1" viewBox="0 0 309 314">
  <!-- Generator: Adobe Illustrator 30.2.1, SVG Export Plug-In . SVG Version: 2.1.1 Build 1)  -->
  <defs>
    <style>
      .st0 {
        fill: #fff;
      }
    </style>
  </defs>
  <path class="st0" d="M243.51,236.15v-.36l-.03-85.2c0-10.75-5.43-20-13.58-25.62-.26-.18-.52-.35-.78-.53-.05-.03-.11-.07-.16-.11-3.36-2.18-7.15-3.74-11.19-4.49-2.93-.58-5.99-.77-9.11-.52h-.37l-.16-20.68c-.05-6.11-1.14-12-3.1-17.5-.02-1.1-.26-2.24-.74-3.35-8.77-20.22-28.51-32.68-49.78-32.56-21.26-.12-41,12.33-49.78,32.56-.48,1.11-.72,2.24-.74,3.35-1.96,5.5-3.05,11.39-3.1,17.5l-.16,20.67h-.37c-3.12-.25-6.18-.06-9.11.52-4.05.75-7.84,2.3-11.19,4.49-.05.03-.11.07-.16.11-.26.17-.52.35-.78.53-8.15,5.62-13.58,14.87-13.58,25.62l-.03,85.2v1.57c0,15.93,12.37,29.58,28.05,31.18,1.21.14,2.45.22,3.7.22l57.26-.03,57.26.03c1.26,0,2.49-.08,3.7-.22,15.68-1.6,28.05-15.25,28.05-31.18v-1.21h-.02ZM97.43,252.79c-9.1,0-15.88-7.25-15.89-15.97l-.04-85.24c0-8.59,6.11-15.43,14.47-16.27.54-.05,1.08-.08,1.64-.08h113.78c.56,0,1.1.03,1.64.08,8.36.84,14.48,7.68,14.47,16.27l-.04,85.24c0,8.72-6.79,15.97-15.89,15.97l-57.07.02-57.07-.02h0ZM116.91,119.22l-.04-20.08c-.05-18.22,12.93-33.62,30.27-37.15,2.47-.5,4.93-.75,7.36-.77,2.44.02,4.9.27,7.36.77,17.34,3.53,30.32,18.93,30.27,37.15l-.04,20.08-37.59.05-37.59-.05h0Z"/>
  <path class="st0" d="M158.6,178h-.02c-.44-.13-.88-.24-1.32-.32-.1-.02-.2-.03-.3-.05-.35-.06-.71-.11-1.07-.15-.19-.02-.38-.03-.57-.04-.27,0-.54-.03-.82-.03s-.54,0-.82.03c-.19,0-.38.02-.57.04-.36.03-.71.09-1.07.15-.1.02-.2.03-.3.05-.45.09-.89.19-1.32.32h-.02c-2.54.75-4.91,2.19-6.8,4.36-5.53,6.35-4.49,16.22,2.77,21.29l.16,17.57v1.48c0,.09,0,.18.02.26v.95c.05,4.33,4.04,7.39,7.95,7.34,3.91.04,7.91-3.01,7.95-7.34v-.95c0-.09.02-.17.02-.26v-1.48l.16-17.57c7.26-5.07,8.3-14.94,2.77-21.29-1.89-2.17-4.26-3.61-6.8-4.36h0Z"/>
</svg>