<?xml version="1.0" encoding="UTF-8"?>
<svg id="Layer_1" xmlns="http://www.w3.org/2000/svg" version="1.1" viewBox="0 0 309 314">
  <!-- Generator: Adobe Illustrator 30.2.1, SVG Export Plug-In . SVG Version: 2.1.1 Build 1)  -->
  <defs>
    <style>
      .st0 {
        fill: #4e4e4e;
        stroke: #fff;
        stroke-linecap: round;
        stroke-linejoin: round;
        stroke-width: 8px;
      }

      .st1 {
        fill: #fff;
      }
    </style>
  </defs>
  <g id="LrkieB.tif">
    <g>
      <path class="st0" d="M184.3,196.56l-13.37,45.98c-.67,2.32-2.73,3.39-4.6,3.41-1.65,0-3.79-.68-4.76-3.1l-41.71-104.31c-.69-1.72.41-3.75,1.02-4.55.77-1,3.13-2.44,5.22-1.61l104.27,41.66c2.45.98,3.08,3.16,3.1,4.76.03,2.41-1.69,4.2-4.3,4.95l-44.87,12.81h0Z"/>
      <g>
        <path class="st1" d="M145.75,122.84c-2.24,2.27-5.12,1.78-6.57.75-6.72-4.76,6.38-14.52,13.42-21.48,1.72-1.7,5.02-1.11,6.65.22,5.52,4.48-7.15,14.08-13.5,20.51h0Z"/>
        <path class="st1" d="M97.46,171.18c-2.33,2.35-5.35,2.26-6.98,1.03-1.94-1.47-2.74-5.07-.81-7.1,4.83-5.1,9.51-9.98,14.72-14.63,1.98-1.77,5.43-.78,6.79,1.18.98,1.41,1.38,4.28-.56,6.23l-13.17,13.29h0Z"/>
        <path class="st1" d="M110.13,115.64c2.45,2.34,2.22,5.31.73,7.11-1.7,2.06-5.03,2.49-7.34.16-6.89-6.98-17.84-14.88-13.99-20.2,4.56-6.29,13.9,6.53,20.59,12.93h0Z"/>
        <path class="st1" d="M129.52,109.53c0,3.69-2.13,5.31-4.11,5.58-3.21.44-5.63-1.45-5.71-4.98-.22-9.55-1.94-21.75,4.59-22.13,2.56-.15,5.15,1.69,5.16,4.99l.06,16.53h0Z"/>
        <path class="st1" d="M97.66,141.94h-17.13c-2.88,0-4.66-2.09-4.93-4.07-1.09-7.85,12.05-5.91,22.07-5.7,3.08.07,4.93,1.97,5.06,4.63.12,2.5-1.59,5.14-5.06,5.14h-.01Z"/>
      </g>
    </g>
  </g>
</svg>