<?xml version="1.0" encoding="UTF-8"?>
<svg id="Layer_1" xmlns="http://www.w3.org/2000/svg" version="1.1" viewBox="0 0 309 314">
  <!-- Generator: Adobe Illustrator 30.2.1, SVG Export Plug-In . SVG Version: 2.1.1 Build 1)  -->
  <defs>
    <style>
      .st0 {
        fill: #fff;
      }
    </style>
  </defs>
  <g id="hCqH1J.tif">
    <g>
      <path class="st0" d="M164.99,182.01c5.81,6.3,4.94,16.44-2.48,21.65l-.05,19.04c0,4.67-3.13,8.15-7.37,8.53-4.09.38-8.5-2.77-8.54-7.32l-.18-20.26c-7.26-5.07-8.3-14.94-2.77-21.29,5.63-6.47,15.57-6.65,21.39-.35h0Z"/>
      <path class="st0" d="M243.37,150.54c-.03-16.94-14.08-31.17-31.08-31.2l-95.39-.12-.04-20.08c-.05-18.22,12.93-33.62,30.27-37.15,17.74-3.62,35.41,5.64,42.58,22.34,1.88,4.36,6.82,5.95,10.69,4.15,4.1-1.92,5.7-6.47,3.87-10.67-10.26-23.65-35.52-36.69-60.67-31.4-24.35,5.12-42.52,26.78-42.72,52.25l-.16,20.7c-18.69-1.73-35.2,12.48-35.2,31.23l-.03,86.77c0,16.96,14.01,31.33,31.11,31.34l115.15.06c17.89.01,31.78-14.69,31.75-32.61l-.13-85.61h0ZM227.45,236.82c0,8.72-6.79,15.97-15.89,15.97l-113.95.04c-9.02,0-16.18-6.98-16.18-16.01l-.04-85.24c-.01-9.18,6.98-16.35,16.22-16.35h113.66c9.24,0,16.23,7.17,16.22,16.35l-.04,85.24h0Z"/>
      <g>
        <path class="st0" d="M162.51,203.66l-.05,19.04c0,4.67-3.13,8.15-7.37,8.53-4.09.38-8.5-2.77-8.54-7.32l-.18-20.26c-7.26-5.07-8.3-14.94-2.77-21.29,5.63-6.47,15.57-6.65,21.39-.35,5.81,6.3,4.94,16.44-2.48,21.65h0Z"/>
        <path class="st0" d="M162.51,203.66l-.05,19.04c0,4.67-3.13,8.15-7.37,8.53-4.09.38-8.5-2.77-8.54-7.32l-.18-20.26c-7.26-5.07-8.3-14.94-2.77-21.29,5.63-6.47,15.57-6.65,21.39-.35,5.81,6.3,4.94,16.44-2.48,21.65h0Z"/>
      </g>
    </g>
  </g>
</svg>