<?xml version="1.0" encoding="UTF-8"?>
<svg id="Layer_1" xmlns="http://www.w3.org/2000/svg" version="1.1" viewBox="0 0 309 314">
  <!-- Generator: Adobe Illustrator 30.2.1, SVG Export Plug-In . SVG Version: 2.1.1 Build 1)  -->
  <defs>
    <style>
      .st0 {
        fill: #fff;
      }
    </style>
  </defs>
  <path class="st0" d="M73.77,123.42c-12.94.19-23.25,10.75-23.23,24.08l.04,33.49c0,4.25,3.29,7.42,7.17,7.58,4.01.16,7.49-2.84,7.78-7.05.21-3.12-.23-6.01.22-9l16.95.19.03,8.61c.01,4.2,3.61,7.29,7.52,7.25,4.04-.04,7.43-3.25,7.43-7.56v-34.01c0-13.35-10.88-23.78-23.91-23.58h0ZM82.67,157.49h-17.05l-.03-10.5c-.02-4.81,3.81-8.42,8.19-8.58,4.84-.17,8.92,3.56,8.91,8.56,0,0-.02,10.52-.02,10.52Z"/>
  <path class="st0" d="M153.94,132.99v34.01c0,13.32-10.86,23.69-23.73,23.58-13.09-.1-23.44-10.74-23.42-24.08l.05-33.51c0-4.29,3.3-7.48,7.4-7.56,3.75-.07,7.52,2.93,7.52,7.2l.02,33.87c.01,5.05,3.5,8.98,8.44,9.09,4.56.1,8.71-3.55,8.71-8.58v-33.79c0-4.55,3.35-7.66,7.32-7.79,4.08-.13,7.69,3.14,7.69,7.56h0Z"/>
  <path class="st0" d="M206.13,132.73c.11,3.93-2.93,7.58-7.17,7.64l-8.84.14-.03,40.26c0,4.76-3.62,7.95-7.82,7.79-4.16-.16-7.21-3.62-7.21-8.07l.03-39.98c-3.1-.26-5.74-.02-8.63-.11-4.14-.13-7.27-3.38-7.4-7.21-.13-4.09,3.03-7.75,7.41-7.76l32.01-.02c4.33,0,7.53,3.28,7.65,7.32h0Z"/>
  <path class="st0" d="M258.37,146.98c0-13.3-10.82-23.66-23.68-23.57-13.12.09-23.47,10.74-23.47,24.07v19.04c0,13.32,10.35,23.98,23.47,24.07,12.83.08,23.7-10.23,23.69-23.76v-19.85h-.01ZM235.18,175.58c-4.85.19-8.91-3.55-8.91-8.56v-20.03c0-4.86,3.82-8.51,8.41-8.58,4.64-.07,8.69,3.6,8.69,8.59l.02,19.79c0,5.05-3.85,8.63-8.21,8.79Z"/>
  <path class="st0" d="M258.84,77.21H50.09c-12.91,0-23.57,10.32-23.57,23.33v112.92c-.01,12.99,10.66,23.33,23.57,23.33l208.99-.02c12.99,0,23.33-10.58,23.34-23.31l.06-112.41c.01-13.21-10.39-23.84-23.64-23.84h0ZM267.46,212.95c0,4.65-3.29,8.83-8.43,8.83l-208.92.02c-5.05,0-8.64-3.9-8.64-8.86v-111.88c0-4.98,3.59-8.85,8.64-8.85h208.72c5.04,0,8.64,3.88,8.64,8.85v111.89h-.01Z"/>
  <g>
    <path class="st0" d="M73.77,123.42c-12.94.19-23.25,10.75-23.23,24.08l.04,33.49c0,4.25,3.29,7.42,7.17,7.58,4.01.16,7.49-2.84,7.78-7.05.21-3.12-.23-6.01.22-9l16.95.19.03,8.61c.01,4.2,3.61,7.29,7.52,7.25,4.04-.04,7.43-3.25,7.43-7.56v-34.01c0-13.35-10.88-23.78-23.91-23.58h0ZM82.67,157.49h-17.05l-.03-10.5c-.02-4.81,3.81-8.42,8.19-8.58,4.84-.17,8.92,3.56,8.91,8.56,0,0-.02,10.52-.02,10.52Z"/>
    <path class="st0" d="M153.94,132.99v34.01c0,13.32-10.86,23.69-23.73,23.58-13.09-.1-23.44-10.74-23.42-24.08l.05-33.51c0-4.29,3.3-7.48,7.4-7.56,3.75-.07,7.52,2.93,7.52,7.2l.02,33.87c.01,5.05,3.5,8.98,8.44,9.09,4.56.1,8.71-3.55,8.71-8.58v-33.79c0-4.55,3.35-7.66,7.32-7.79,4.08-.13,7.69,3.14,7.69,7.56h0Z"/>
    <path class="st0" d="M206.13,132.73c.11,3.93-2.93,7.58-7.17,7.64l-8.84.14-.03,40.26c0,4.76-3.62,7.95-7.82,7.79-4.16-.16-7.21-3.62-7.21-8.07l.03-39.98c-3.1-.26-5.74-.02-8.63-.11-4.14-.13-7.27-3.38-7.4-7.21-.13-4.09,3.03-7.75,7.41-7.76l32.01-.02c4.33,0,7.53,3.28,7.65,7.32h0Z"/>
    <path class="st0" d="M258.37,146.98c0-13.3-10.82-23.66-23.68-23.57-13.12.09-23.47,10.74-23.47,24.07v19.04c0,13.32,10.35,23.98,23.47,24.07,12.83.08,23.7-10.23,23.69-23.76v-19.85h-.01ZM235.18,175.58c-4.85.19-8.91-3.55-8.91-8.56v-20.03c0-4.86,3.82-8.51,8.41-8.58,4.64-.07,8.69,3.6,8.69,8.59l.02,19.79c0,5.05-3.85,8.63-8.21,8.79Z"/>
    <path class="st0" d="M153.94,132.99v34.01c0,13.32-10.86,23.69-23.73,23.58-13.09-.1-23.44-10.74-23.42-24.08l.05-33.51c0-4.29,3.3-7.48,7.4-7.56,3.75-.07,7.52,2.93,7.52,7.2l.02,33.87c.01,5.05,3.5,8.98,8.44,9.09,4.56.1,8.71-3.55,8.71-8.58v-33.79c0-4.55,3.35-7.66,7.32-7.79,4.08-.13,7.69,3.14,7.69,7.56h0Z"/>
    <path class="st0" d="M206.13,132.73c.11,3.93-2.93,7.58-7.17,7.64l-8.84.14-.03,40.26c0,4.76-3.62,7.95-7.82,7.79-4.16-.16-7.21-3.62-7.21-8.07l.03-39.98c-3.1-.26-5.74-.02-8.63-.11-4.14-.13-7.27-3.38-7.4-7.21-.13-4.09,3.03-7.75,7.41-7.76l32.01-.02c4.33,0,7.53,3.28,7.65,7.32h0Z"/>
    <path class="st0" d="M258.37,146.98c0-13.3-10.82-23.66-23.68-23.57-13.12.09-23.47,10.74-23.47,24.07v19.04c0,13.32,10.35,23.98,23.47,24.07,12.83.08,23.7-10.23,23.69-23.76v-19.85h-.01ZM235.18,175.58c-4.85.19-8.91-3.55-8.91-8.56v-20.03c0-4.86,3.82-8.51,8.41-8.58,4.64-.07,8.69,3.6,8.69,8.59l.02,19.79c0,5.05-3.85,8.63-8.21,8.79Z"/>
    <path class="st0" d="M73.77,123.42c-12.94.19-23.25,10.75-23.23,24.08l.04,33.49c0,4.25,3.29,7.42,7.17,7.58,4.01.16,7.49-2.84,7.78-7.05.21-3.12-.23-6.01.22-9l16.95.19.03,8.61c.01,4.2,3.61,7.29,7.52,7.25,4.04-.04,7.43-3.25,7.43-7.56v-34.01c0-13.35-10.88-23.78-23.91-23.58h0ZM82.67,157.49h-17.05l-.03-10.5c-.02-4.81,3.81-8.42,8.19-8.58,4.84-.17,8.92,3.56,8.91,8.56,0,0-.02,10.52-.02,10.52Z"/>
  </g>
</svg>